<?xml version="1.0" encoding="iso-8859-1"?>
<!-- Generator: Adobe Illustrator 19.0.0, SVG Export Plug-In . SVG Version: 6.00 Build 0)  -->
<svg version="1.1" id="Capa_1" xmlns="http://www.w3.org/2000/svg" xmlns:xlink="http://www.w3.org/1999/xlink" x="0px" y="0px"
	 viewBox="0 0 496 496" style="enable-background:new 0 0 496 496;" xml:space="preserve">
<g>
	<g>
		<path d="M448,400c-3.544,0-7.064,0.4-10.52,1.2C431.216,381.736,413.088,368,392,368V208c30.88,0,56-25.128,56-56
			c0-4.32-0.496-8.584-1.488-12.768C466.576,130.416,480,110.384,480,88c0-30.016-23.736-54.584-53.424-55.936
			C417.4,12.664,397.752,0,376,0c-25.576,0-47.352,17.056-53.952,40.928C318.72,40.312,315.36,40,312,40c-30.88,0-56,25.128-56,56
			c0,21.992,12.712,41.6,32.264,50.712C288.088,148.488,288,150.248,288,152c0,30.872,25.12,56,56,56v146.88
			c-5.064-1.824-10.44-2.88-16-2.88c-26.472,0-48,21.528-48,48c0,0.216,0,0.448,0,0.664c-22.672,3.824-40,23.592-40,47.336
			c0,26.472,21.528,48,48,48h160c26.472,0,48-21.528,48-48S474.472,400,448,400z M304,152c0-2.824,0.328-5.736,0.968-8.648
			l1.552-7.088l-6.888-2.24C283.104,128.648,272,113.368,272,96c0-22.056,17.944-40,40-40c4.552,0,9.12,0.816,13.56,2.416l9.6,3.464
			l1.072-10.144C338.384,31.36,355.488,16,376,16c16.936,0,32.096,10.768,37.712,26.792l2,5.704l6.032-0.368l0.8-0.056
			C423.024,48.04,423.504,48,424,48c22.056,0,40,17.944,40,40c0,17.984-12.136,33.84-29.52,38.56l-8.656,2.352l3.328,8.328
			C431.04,141.992,432,146.952,432,152c0,22.056-17.944,40-40,40v-84.688l29.656-29.656l-11.312-11.312L376,100.688v270.224
			c-2.608,0.944-5.168,2.032-7.6,3.424c-2.344-3.696-5.2-6.984-8.4-9.88V149.44l-14.832-20.768L360,106.424V80h-16v21.576
			l-8.776,13.168l-16.712-23.392l-13.024,9.296L344,154.56V192C321.944,192,304,174.056,304,152z M448,480H288
			c-17.648,0-32-14.352-32-32c0-17.512,14.144-31.784,31.608-32l11.088,0.36l-2.032-9.888C296.216,404.36,296,402.176,296,400
			c0-17.648,14.352-32,32-32c13.288,0,25.312,8.464,29.928,21.048l4.064,11.08l8.784-7.864C376.72,386.928,384.256,384,392,384
			c16.224,0,29.816,12.248,31.608,28.496l1.208,10.944l10.04-4.536C439.12,416.976,443.544,416,448,416c17.648,0,32,14.352,32,32
			S465.648,480,448,480z"/>
	</g>
</g>
<g>
	<g>
		<path d="M256,224v-72c0-13.232-10.768-24-24-24H24c-13.232,0-24,10.768-24,24v72h32v64H0v48h16v80h48v-80h128v80h48v-80h16v-48
			h-32v-64H256z M48,400H32v-64h16V400z M224,400h-16v-64h16V400z M240,304v16H16v-16H240z M48,288v-64h16v64H48z M80,288v-64h96v64
			H80z M192,288v-64h16v64H192z M16,208v-56c0-4.416,3.592-8,8-8h208c4.408,0,8,3.584,8,8v56H16z"/>
	</g>
</g>
<g>
</g>
<g>
</g>
<g>
</g>
<g>
</g>
<g>
</g>
<g>
</g>
<g>
</g>
<g>
</g>
<g>
</g>
<g>
</g>
<g>
</g>
<g>
</g>
<g>
</g>
<g>
</g>
<g>
</g>
</svg>
